REM DIRINDEX 1\2,1\4,1\3\5,1\3\6,1\3\7
REM DIRNAME folder01,folder02,folder03,folder04,folder05,folder06,folder07
TITLE ""
FILE "CD2Track24.mp3" MP3
  TRACK 01 AUDIO
    TITLE "0:"
    INDEX 01 00:00:00
  TRACK 02 AUDIO
    TITLE "5:cjc081_1586"
    INDEX 01 00:00:27
  TRACK 03 AUDIO
    TITLE "0:"
    INDEX 01 00:01:34
  TRACK 04 AUDIO
    TITLE "6:cjc081_1587"
    INDEX 01 00:02:00
  TRACK 05 AUDIO
    TITLE "0:"
    INDEX 01 00:03:25
  TRACK 06 AUDIO
    TITLE "5:cjc081_1588"
    INDEX 01 00:03:66
  TRACK 07 AUDIO
    TITLE "0:"
    INDEX 01 00:05:07
  TRACK 08 AUDIO
    TITLE "6:cjc081_1589"
    INDEX 01 00:05:50
  TRACK 09 AUDIO
    TITLE "0:"
    INDEX 01 00:08:46
  TRACK 10 AUDIO
    TITLE "5:cjc081_1590"
    INDEX 01 00:09:16
  TRACK 11 AUDIO
    TITLE "0:"
    INDEX 01 00:10:29
  TRACK 12 AUDIO
    TITLE "6:cjc081_1591"
    INDEX 01 00:10:74
  TRACK 13 AUDIO
    TITLE "0:"
    INDEX 01 00:12:61
  TRACK 14 AUDIO
    TITLE "5:cjc081_1592"
    INDEX 01 00:13:28
  TRACK 15 AUDIO
    TITLE "0:"
    INDEX 01 00:14:53
  TRACK 16 AUDIO
    TITLE "6:cjc081_1593"
    INDEX 01 00:15:23
  TRACK 17 AUDIO
    TITLE "0:"
    INDEX 01 00:17:14
  TRACK 18 AUDIO
    TITLE "5:cjc081_1594"
    INDEX 01 00:17:53
  TRACK 19 AUDIO
    TITLE "0:"
    INDEX 01 00:19:16
  TRACK 20 AUDIO
    TITLE "6:cjc081_1595"
    INDEX 01 00:19:60
  TRACK 21 AUDIO
    TITLE "0:"
    INDEX 01 00:21:58
  TRACK 22 AUDIO
    TITLE "5:cjc081_1596"
    INDEX 01 00:22:27
  TRACK 23 AUDIO
    TITLE "0:"
    INDEX 01 00:23:51
  TRACK 24 AUDIO
    TITLE "6:cjc081_1597"
    INDEX 01 00:24:20
  TRACK 25 AUDIO
    TITLE "0:"
    INDEX 01 00:25:25
  TRACK 26 AUDIO
    TITLE "5:cjc081_1598"
    INDEX 01 00:25:62
  TRACK 27 AUDIO
    TITLE "0:"
    INDEX 01 00:26:73
  TRACK 28 AUDIO
    TITLE "6:cjc081_1599"
    INDEX 01 00:27:43
  TRACK 29 AUDIO
    TITLE "0:"
    INDEX 01 00:32:05
  TRACK 30 AUDIO
    TITLE "5:cjc081_1600"
    INDEX 01 00:32:43
  TRACK 31 AUDIO
    TITLE "0:"
    INDEX 01 00:34:02
  TRACK 32 AUDIO
    TITLE "6:cjc081_1601"
    INDEX 01 00:34:49
  TRACK 33 AUDIO
    TITLE "0:"
    INDEX 01 00:37:40
  TRACK 34 AUDIO
    TITLE "5:cjc081_1602"
    INDEX 01 00:38:10
  TRACK 35 AUDIO
    TITLE "0:"
    INDEX 01 00:39:31
  TRACK 36 AUDIO
    TITLE "6:cjc081_1603"
    INDEX 01 00:39:74
  TRACK 37 AUDIO
    TITLE "0:"
    INDEX 01 00:42:61
  TRACK 38 AUDIO
    TITLE "5:cjc081_1604"
    INDEX 01 00:43:29
  TRACK 39 AUDIO
    TITLE "0:"
    INDEX 01 00:44:44
  TRACK 40 AUDIO
    TITLE "6:cjc081_1605"
    INDEX 01 00:45:14
  TRACK 41 AUDIO
    TITLE "0:"
    INDEX 01 00:47:07
  TRACK 42 AUDIO
    TITLE "5:cjc081_1606"
    INDEX 01 00:47:46
  TRACK 43 AUDIO
    TITLE "0:"
    INDEX 01 00:49:49
  TRACK 44 AUDIO
    TITLE "6:cjc081_1607"
    INDEX 01 00:50:17
  TRACK 45 AUDIO
    TITLE "0:"
    INDEX 01 00:53:13
  TRACK 46 AUDIO
    TITLE "5:cjc081_1608"
    INDEX 01 00:53:57
  TRACK 47 AUDIO
    TITLE "0:"
    INDEX 01 00:55:22
  TRACK 48 AUDIO
    TITLE "6:cjc081_1609"
    INDEX 01 00:55:65
  TRACK 49 AUDIO
    TITLE "0:"
    INDEX 01 00:56:72
  TRACK 50 AUDIO
    TITLE "5:cjc081_1610"
    INDEX 01 00:57:41
  TRACK 51 AUDIO
    TITLE "0:"
    INDEX 01 00:58:73
  TRACK 52 AUDIO
    TITLE "6:cjc081_1611"
    INDEX 01 00:59:41
  TRACK 53 AUDIO
    TITLE "0:"
    INDEX 01 01:00:66
  TRACK 54 AUDIO
    TITLE "5:cjc081_1612"
    INDEX 01 01:01:34
  TRACK 55 AUDIO
    TITLE "0:"
    INDEX 01 01:02:67
  TRACK 56 AUDIO
    TITLE "6:cjc081_1613"
    INDEX 01 01:03:37
  TRACK 57 AUDIO
    TITLE "0:"
    INDEX 01 01:05:01
  TRACK 58 AUDIO
    TITLE "7:cjc081_1614"
    INDEX 01 01:06:38
  TRACK 59 AUDIO
    TITLE "0:"
    INDEX 01 01:16:40
